<svg xmlns="http://www.w3.org/2000/svg" xmlns:xlink="http://www.w3.org/1999/xlink" width="300" zoomAndPan="magnify" viewBox="0 0 224.87999 166.499995" height="222" preserveAspectRatio="xMidYMid meet" version="1.0"><defs><clipPath id="0dc7df4351"><path d="M 0.277344 121.4375 L 19.746094 121.4375 L 19.746094 145.085938 L 0.277344 145.085938 Z M 0.277344 121.4375 " clip-rule="nonzero"/></clipPath><clipPath id="da1bda8ed9"><path d="M 16.070312 145.054688 L 10.0625 136.484375 L 13.671875 136.484375 L 19.742188 145.054688 Z M 3.652344 136.652344 L 2.132812 135 L 9.386719 135 C 11.546875 135 13.183594 134.53125 14.296875 133.601562 C 15.410156 132.667969 15.964844 131.355469 15.964844 129.671875 C 15.964844 127.984375 15.410156 126.679688 14.296875 125.757812 C 13.183594 124.832031 11.546875 124.371094 9.386719 124.371094 L 2.132812 124.371094 L 3.652344 122.683594 Z M 0.277344 145.054688 L 0.277344 121.4375 L 9.488281 121.4375 C 11.558594 121.4375 13.324219 121.765625 14.785156 122.414062 C 16.25 123.066406 17.371094 124.011719 18.160156 125.246094 C 18.949219 126.484375 19.339844 127.960938 19.339844 129.667969 C 19.339844 131.375 18.945312 132.84375 18.160156 134.070312 C 17.375 135.300781 16.246094 136.234375 14.785156 136.890625 C 13.328125 137.542969 11.558594 137.867188 9.488281 137.867188 L 2.132812 137.867188 L 3.652344 136.316406 L 3.652344 145.054688 Z M 0.277344 145.054688 " clip-rule="nonzero"/></clipPath><clipPath id="fd98e59c17"><path d="M 0.277344 158.925781 L 19.351562 158.925781 L 19.351562 159.332031 L 0.277344 159.332031 Z M 0.277344 158.925781 " clip-rule="nonzero"/></clipPath><clipPath id="28d9e469fc"><path d="M 26.828125 121.4375 L 30.203125 121.4375 L 30.203125 145.054688 L 26.828125 145.054688 Z M 26.828125 121.4375 " clip-rule="nonzero"/></clipPath><clipPath id="4858da293a"><path d="M 29.210938 152.71875 L 39.628906 152.71875 L 39.628906 165.785156 L 29.210938 165.785156 Z M 29.210938 152.71875 " clip-rule="nonzero"/></clipPath><clipPath id="a680c578c6"><path d="M 30.617188 160.488281 L 34.175781 160.488281 C 35.472656 160.488281 36.480469 160.199219 37.167969 159.632812 C 37.867188 159.054688 38.21875 158.230469 38.21875 157.179688 C 38.21875 156.128906 37.867188 155.308594 37.167969 154.726562 C 36.480469 154.160156 35.472656 153.871094 34.175781 153.871094 L 30.617188 153.871094 Z M 29.210938 165.753906 L 29.210938 152.71875 L 34.234375 152.71875 C 35.378906 152.71875 36.367188 152.902344 37.171875 153.257812 C 37.957031 153.609375 38.570312 154.125 38.992188 154.789062 C 39.414062 155.449219 39.628906 156.257812 39.628906 157.183594 C 39.628906 158.109375 39.414062 158.914062 38.992188 159.566406 C 38.570312 160.222656 37.957031 160.738281 37.167969 161.097656 C 36.363281 161.460938 35.378906 161.644531 34.234375 161.644531 L 30.617188 161.644531 L 30.617188 165.753906 Z M 29.210938 165.753906 " clip-rule="nonzero"/></clipPath><clipPath id="f012344cc3"><path d="M 37.152344 121.167969 L 55.410156 121.167969 L 55.410156 145.390625 L 37.152344 145.390625 Z M 37.152344 121.167969 " clip-rule="nonzero"/></clipPath><clipPath id="5106a3a9cb"><path d="M 46.195312 145.324219 C 44.394531 145.324219 42.671875 145.046875 41.03125 144.496094 C 39.394531 143.945312 38.097656 143.230469 37.152344 142.355469 L 38.398438 139.722656 C 39.300781 140.511719 40.445312 141.164062 41.84375 141.683594 C 43.238281 142.199219 44.6875 142.457031 46.195312 142.457031 C 47.566406 142.457031 48.675781 142.300781 49.53125 141.988281 C 50.386719 141.671875 51.015625 141.238281 51.421875 140.691406 C 51.828125 140.140625 52.03125 139.515625 52.03125 138.820312 C 52.03125 138.007812 51.765625 137.359375 51.242188 136.863281 C 50.714844 136.371094 50.027344 135.96875 49.183594 135.664062 C 48.339844 135.359375 47.410156 135.097656 46.398438 134.875 C 45.386719 134.648438 44.367188 134.382812 43.34375 134.078125 C 42.320312 133.773438 41.386719 133.386719 40.546875 132.914062 C 39.703125 132.445312 39.019531 131.808594 38.503906 131.011719 C 37.984375 130.210938 37.726562 129.183594 37.726562 127.921875 C 37.726562 126.707031 38.046875 125.585938 38.6875 124.5625 C 39.332031 123.539062 40.320312 122.71875 41.660156 122.097656 C 43 121.480469 44.699219 121.167969 46.769531 121.167969 C 48.140625 121.167969 49.5 121.347656 50.847656 121.707031 C 52.199219 122.070312 53.367188 122.585938 54.359375 123.257812 L 53.246094 125.960938 C 52.234375 125.285156 51.164062 124.796875 50.039062 124.492188 C 48.914062 124.1875 47.824219 124.035156 46.769531 124.035156 C 45.441406 124.035156 44.347656 124.203125 43.496094 124.539062 C 42.644531 124.878906 42.015625 125.328125 41.625 125.890625 C 41.234375 126.453125 41.035156 127.085938 41.035156 127.78125 C 41.035156 128.613281 41.300781 129.277344 41.832031 129.769531 C 42.359375 130.265625 43.042969 130.660156 43.886719 130.953125 C 44.734375 131.246094 45.660156 131.507812 46.671875 131.746094 C 47.683594 131.980469 48.703125 132.246094 49.726562 132.535156 C 50.75 132.824219 51.683594 133.207031 52.527344 133.683594 C 53.371094 134.160156 54.050781 134.785156 54.570312 135.574219 C 55.085938 136.363281 55.34375 137.375 55.34375 138.609375 C 55.34375 139.804688 55.015625 140.910156 54.367188 141.933594 C 53.714844 142.957031 52.707031 143.777344 51.347656 144.398438 C 49.984375 145.019531 48.269531 145.324219 46.199219 145.324219 " clip-rule="nonzero"/></clipPath><clipPath id="bea5683bfd"><path d="M 49.335938 152.71875 L 62.777344 152.71875 L 62.777344 165.804688 L 49.335938 165.804688 Z M 49.335938 152.71875 " clip-rule="nonzero"/></clipPath><clipPath id="ad40a015e2"><path d="M 52.6875 161.339844 L 59.347656 161.339844 L 56.015625 153.765625 Z M 61.285156 165.753906 L 59.792969 162.359375 L 52.238281 162.359375 L 50.746094 165.757812 L 49.335938 165.757812 L 55.238281 152.71875 L 56.816406 152.71875 L 62.738281 165.757812 Z M 61.285156 165.753906 " clip-rule="nonzero"/></clipPath><clipPath id="d8b9c37976"><path d="M 62.289062 121.4375 L 78.953125 121.4375 L 78.953125 124.375 L 62.289062 124.375 Z M 62.289062 124.375 L 65.660156 124.375 L 65.660156 131.625 L 62.289062 131.625 Z M 62.289062 131.625 L 77.503906 131.625 L 77.503906 134.492188 L 62.289062 134.492188 Z M 62.289062 134.492188 L 65.660156 134.492188 L 65.660156 142.121094 L 62.289062 142.121094 Z M 62.289062 142.121094 L 79.425781 142.121094 L 79.425781 145.054688 L 62.289062 145.054688 Z M 62.289062 142.121094 " clip-rule="nonzero"/></clipPath><clipPath id="4d9b182f18"><path d="M 74.34375 152.71875 L 84.761719 152.71875 L 84.761719 165.785156 L 74.34375 165.785156 Z M 74.34375 152.71875 " clip-rule="nonzero"/></clipPath><clipPath id="195e7c1da7"><path d="M 75.75 160.507812 L 79.3125 160.507812 C 80.613281 160.507812 81.617188 160.214844 82.300781 159.640625 C 83 159.054688 83.355469 158.226562 83.355469 157.179688 C 83.355469 156.132812 83 155.308594 82.300781 154.726562 C 81.617188 154.160156 80.609375 153.871094 79.3125 153.871094 L 75.75 153.871094 Z M 83.285156 165.753906 L 80.359375 161.582031 L 80.207031 161.59375 C 79.9375 161.613281 79.65625 161.625 79.367188 161.625 L 75.75 161.625 L 75.75 165.753906 L 74.34375 165.753906 L 74.34375 152.71875 L 79.367188 152.71875 C 80.511719 152.71875 81.5 152.902344 82.304688 153.257812 C 83.089844 153.609375 83.703125 154.125 84.125 154.789062 C 84.546875 155.449219 84.761719 156.253906 84.761719 157.183594 C 84.761719 158.113281 84.546875 158.914062 84.125 159.570312 C 83.703125 160.222656 83.089844 160.734375 82.304688 161.089844 C 82.191406 161.140625 82.070312 161.183594 81.953125 161.230469 L 81.628906 161.347656 L 84.75 165.757812 Z M 83.285156 165.753906 " clip-rule="nonzero"/></clipPath><clipPath id="3481a88b75"><path d="M 95.195312 152.71875 L 105.886719 152.71875 L 105.886719 153.875 L 95.195312 153.875 Z M 99.847656 153.875 L 101.234375 153.875 L 101.234375 165.753906 L 99.847656 165.753906 Z M 99.847656 153.875 " clip-rule="nonzero"/></clipPath><clipPath id="d5d9f398a7"><path d="M 94.441406 121.4375 L 119.257812 121.4375 L 119.257812 145.054688 L 94.441406 145.054688 Z M 94.441406 121.4375 " clip-rule="nonzero"/></clipPath><clipPath id="1b24995ecc"><path d="M 98.996094 139.148438 L 99.910156 136.449219 L 113.199219 136.449219 L 114.175781 139.148438 Z M 94.441406 145.050781 L 105.136719 121.4375 L 108.472656 121.4375 L 119.203125 145.050781 L 115.664062 145.050781 L 106.113281 123.328125 L 107.460938 123.328125 L 97.917969 145.050781 Z M 94.441406 145.050781 " clip-rule="nonzero"/></clipPath><clipPath id="39379c4ab2"><path d="M 117.441406 152.71875 L 128.578125 152.71875 L 128.578125 165.769531 L 117.441406 165.769531 Z M 117.441406 152.71875 " clip-rule="nonzero"/></clipPath><clipPath id="89cf626de8"><path d="M 127.382812 165.753906 L 118.851562 155.160156 L 118.851562 165.753906 L 117.441406 165.753906 L 117.441406 152.71875 L 118.640625 152.71875 L 127.171875 163.3125 L 127.171875 152.71875 L 128.578125 152.71875 L 128.578125 165.753906 Z M 127.382812 165.753906 " clip-rule="nonzero"/></clipPath><clipPath id="9501dca31c"><path d="M 124.738281 121.4375 L 145.128906 121.4375 L 145.128906 145.078125 L 124.738281 145.078125 Z M 124.738281 121.4375 " clip-rule="nonzero"/></clipPath><clipPath id="61cd324423"><path d="M 128.109375 142.320312 L 135.871094 142.320312 C 137.738281 142.320312 139.164062 142.003906 140.15625 141.378906 C 141.148438 140.75 141.640625 139.757812 141.640625 138.40625 C 141.640625 137.035156 141.144531 136.035156 140.15625 135.40625 C 139.167969 134.78125 137.738281 134.464844 135.871094 134.464844 L 127.808594 134.464844 L 127.808594 131.726562 L 135.027344 131.726562 C 136.734375 131.726562 138.0625 131.410156 139.007812 130.78125 C 139.953125 130.15625 140.425781 129.207031 140.425781 127.949219 C 140.425781 126.691406 139.953125 125.746094 139.007812 125.113281 C 138.0625 124.484375 136.738281 124.171875 135.027344 124.171875 L 128.109375 124.171875 Z M 124.738281 145.054688 L 124.738281 121.4375 L 135.328125 121.4375 C 138.054688 121.4375 140.140625 121.980469 141.605469 123.074219 C 143.070312 124.164062 143.800781 125.65625 143.800781 127.542969 C 143.800781 128.824219 143.515625 129.902344 142.941406 130.78125 C 142.367188 131.660156 141.597656 132.332031 140.628906 132.804688 C 139.660156 133.277344 138.617188 133.511719 137.492188 133.511719 L 138.097656 132.5 C 139.449219 132.5 140.640625 132.738281 141.675781 133.207031 C 142.707031 133.679688 143.53125 134.371094 144.136719 135.285156 C 144.746094 136.199219 145.050781 137.328125 145.050781 138.679688 C 145.050781 140.703125 144.289062 142.273438 142.773438 143.386719 C 141.253906 144.5 138.996094 145.054688 136.007812 145.054688 Z M 124.738281 145.054688 " clip-rule="nonzero"/></clipPath><clipPath id="fa84a3dfd0"><path d="M 142.09375 152.71875 L 151.136719 152.71875 L 151.136719 153.875 L 142.09375 153.875 Z M 142.09375 153.875 L 143.5 153.875 L 143.5 158.570312 L 142.09375 158.570312 Z M 142.09375 158.570312 L 150.304688 158.570312 L 150.304688 159.691406 L 142.09375 159.691406 Z M 142.09375 159.691406 L 143.5 159.691406 L 143.5 164.597656 L 142.09375 164.597656 Z M 142.09375 164.597656 L 151.40625 164.597656 L 151.40625 165.753906 L 142.09375 165.753906 Z M 142.09375 164.597656 " clip-rule="nonzero"/></clipPath><clipPath id="b4f70c827f"><path d="M 62 44.730469 L 165.859375 44.730469 L 165.859375 75.8125 L 62 75.8125 Z M 62 44.730469 " clip-rule="nonzero"/></clipPath><clipPath id="6d04776a7f"><path d="M 165.851562 59.53125 L 165.851562 61.6875 L 160.273438 61.6875 L 148.058594 49.417969 L 141.222656 55.4375 L 139.601562 56.867188 L 133.222656 62.480469 L 131.601562 63.902344 L 118.328125 75.59375 L 104.296875 64.632812 L 102.589844 63.300781 L 95.769531 57.972656 L 94.0625 56.636719 L 82.507812 47.609375 L 65.980469 61.386719 L 62 61.386719 L 62 59.230469 L 65.203125 59.230469 L 82.464844 44.839844 L 95.539062 55.054688 L 97.246094 56.390625 L 104.074219 61.730469 L 105.78125 63.0625 L 118.242188 72.796875 L 130.203125 62.265625 L 131.824219 60.84375 L 138.183594 55.242188 L 139.804688 53.8125 L 148.160156 46.457031 L 161.171875 59.53125 Z M 165.851562 59.53125 " clip-rule="nonzero"/></clipPath><clipPath id="46902ef52e"><path d="M 62 45.488281 L 165.859375 45.488281 L 165.859375 79.605469 L 62 79.605469 Z M 62 45.488281 " clip-rule="nonzero"/></clipPath><clipPath id="d7cd985ff6"><path d="M 165.851562 77.332031 L 165.851562 79.492188 L 144.832031 79.492188 L 131.601562 63.902344 L 130.203125 62.261719 L 118.984375 49.050781 L 105.78125 63.058594 L 104.296875 64.632812 L 90.292969 79.492188 L 62 79.492188 L 62 77.332031 L 89.363281 77.332031 L 102.589844 63.304688 L 104.074219 61.730469 L 119.070312 45.820312 L 131.824219 60.839844 L 133.222656 62.480469 L 145.839844 77.332031 Z M 165.851562 77.332031 " clip-rule="nonzero"/></clipPath><clipPath id="d7cc7bfa89"><path d="M 62 1.902344 L 165.851562 1.902344 L 165.851562 4.058594 L 62 4.058594 Z M 62 4.058594 L 64.15625 4.058594 L 64.15625 61.386719 L 62 61.386719 Z M 163.695312 4.058594 L 165.851562 4.058594 L 165.851562 61.6875 L 163.695312 61.6875 Z M 163.695312 4.058594 " clip-rule="nonzero"/></clipPath><clipPath id="2d9e8a0b05"><path d="M 163.695312 77.332031 L 165.851562 77.332031 L 165.851562 103.597656 L 163.695312 103.597656 Z M 62 77.332031 L 64.15625 77.332031 L 64.15625 103.597656 L 62 103.597656 Z M 62 103.597656 L 165.851562 103.597656 L 165.851562 105.753906 L 62 105.753906 Z M 62 103.597656 " clip-rule="nonzero"/></clipPath><clipPath id="8587ec9451"><path d="M 62 29.566406 L 165.859375 29.566406 L 165.859375 69.371094 L 62 69.371094 Z M 62 29.566406 " clip-rule="nonzero"/></clipPath><clipPath id="d03d1ae231"><path d="M 163.695312 67.121094 L 151.421875 67.121094 L 141.222656 55.4375 L 139.804688 53.808594 L 118.960938 29.9375 L 95.539062 55.054688 L 94.0625 56.636719 L 84.289062 67.117188 L 62 67.117188 L 62 69.273438 L 85.226562 69.273438 L 95.769531 57.96875 L 97.246094 56.386719 L 118.902344 33.152344 L 138.183594 55.238281 L 139.601562 56.863281 L 150.4375 69.273438 L 165.851562 69.273438 L 165.851562 67.117188 Z M 163.695312 67.121094 " clip-rule="nonzero"/></clipPath><clipPath id="8a4f0d4d0d"><path d="M 163.992188 152.71875 L 174.410156 152.71875 L 174.410156 165.785156 L 163.992188 165.785156 Z M 163.992188 152.71875 " clip-rule="nonzero"/></clipPath><clipPath id="94f7ee959c"><path d="M 165.398438 160.507812 L 168.960938 160.507812 C 170.257812 160.507812 171.265625 160.214844 171.949219 159.640625 C 172.648438 159.054688 173.003906 158.226562 173.003906 157.179688 C 173.003906 156.132812 172.648438 155.308594 171.949219 154.726562 C 171.265625 154.160156 170.257812 153.871094 168.960938 153.871094 L 165.398438 153.871094 Z M 172.933594 165.753906 L 170.007812 161.582031 L 169.855469 161.59375 C 169.585938 161.613281 169.304688 161.625 169.015625 161.625 L 165.398438 161.625 L 165.398438 165.753906 L 163.992188 165.753906 L 163.992188 152.71875 L 169.015625 152.71875 C 170.160156 152.71875 171.148438 152.902344 171.953125 153.257812 C 172.738281 153.609375 173.351562 154.125 173.773438 154.789062 C 174.195312 155.449219 174.410156 156.253906 174.410156 157.183594 C 174.410156 158.113281 174.195312 158.914062 173.773438 159.570312 C 173.351562 160.222656 172.738281 160.734375 171.953125 161.089844 C 171.839844 161.140625 171.71875 161.183594 171.601562 161.230469 L 171.273438 161.347656 L 174.398438 165.757812 Z M 172.933594 165.753906 " clip-rule="nonzero"/></clipPath><clipPath id="d42c338b75"><path d="M 185.816406 152.523438 L 195.707031 152.523438 L 195.707031 165.921875 L 185.816406 165.921875 Z M 185.816406 152.523438 " clip-rule="nonzero"/></clipPath><clipPath id="d8ec1977fe"><path d="M 190.683594 165.910156 C 189.683594 165.910156 188.710938 165.753906 187.804688 165.449219 C 186.980469 165.175781 186.316406 164.820312 185.816406 164.402344 L 186.300781 163.375 C 186.796875 163.753906 187.398438 164.074219 188.09375 164.332031 C 188.917969 164.640625 189.789062 164.796875 190.683594 164.796875 C 191.5 164.796875 192.175781 164.695312 192.695312 164.507812 C 193.234375 164.308594 193.636719 164.027344 193.902344 163.667969 C 194.164062 163.3125 194.300781 162.894531 194.300781 162.4375 C 194.300781 161.898438 194.117188 161.457031 193.757812 161.121094 C 193.429688 160.8125 193.003906 160.5625 192.484375 160.375 C 191.996094 160.199219 191.445312 160.039062 190.855469 159.910156 C 190.289062 159.785156 189.703125 159.632812 189.117188 159.460938 C 188.550781 159.296875 188.027344 159.078125 187.558594 158.816406 C 187.113281 158.570312 186.753906 158.226562 186.480469 157.808594 C 186.222656 157.390625 186.085938 156.84375 186.085938 156.171875 C 186.085938 155.53125 186.253906 154.929688 186.597656 154.386719 C 186.941406 153.839844 187.472656 153.402344 188.1875 153.070312 C 188.917969 152.734375 189.867188 152.5625 191.015625 152.5625 C 191.773438 152.5625 192.542969 152.667969 193.292969 152.863281 C 193.953125 153.039062 194.542969 153.289062 195.046875 153.601562 L 194.609375 154.660156 C 194.082031 154.34375 193.53125 154.109375 192.960938 153.953125 C 192.296875 153.773438 191.640625 153.683594 191.015625 153.683594 C 190.222656 153.683594 189.558594 153.785156 189.035156 153.988281 C 188.5 154.203125 188.097656 154.496094 187.839844 154.859375 C 187.585938 155.226562 187.453125 155.644531 187.453125 156.097656 C 187.453125 156.648438 187.636719 157.097656 187.992188 157.433594 C 188.324219 157.738281 188.753906 157.988281 189.273438 158.164062 C 189.761719 158.335938 190.308594 158.492188 190.898438 158.628906 C 191.460938 158.761719 192.050781 158.914062 192.640625 159.082031 C 193.203125 159.242188 193.730469 159.460938 194.191406 159.71875 C 194.636719 159.964844 195 160.304688 195.273438 160.71875 C 195.539062 161.125 195.675781 161.660156 195.675781 162.316406 C 195.675781 162.945312 195.5 163.539062 195.15625 164.082031 C 194.808594 164.621094 194.265625 165.066406 193.535156 165.394531 C 192.789062 165.734375 191.835938 165.90625 190.691406 165.90625 " clip-rule="nonzero"/></clipPath><clipPath id="a16626d263"><path d="M 150.332031 121.121094 L 175.5625 121.121094 L 175.5625 145.371094 L 150.332031 145.371094 Z M 150.332031 121.121094 " clip-rule="nonzero"/></clipPath><clipPath id="a0bd29b2dd"><path d="M 162.964844 142.320312 C 164.269531 142.320312 165.476562 142.097656 166.59375 141.648438 C 167.707031 141.199219 168.671875 140.566406 169.492188 139.742188 C 170.316406 138.921875 170.953125 137.960938 171.417969 136.859375 C 171.882812 135.761719 172.109375 134.554688 172.109375 133.25 C 172.109375 131.945312 171.878906 130.742188 171.417969 129.640625 C 170.957031 128.542969 170.316406 127.578125 169.492188 126.757812 C 168.671875 125.9375 167.707031 125.300781 166.59375 124.851562 C 165.476562 124.402344 164.269531 124.179688 162.964844 124.179688 C 161.636719 124.179688 160.414062 124.402344 159.304688 124.851562 C 158.195312 125.300781 157.21875 125.9375 156.386719 126.757812 C 155.554688 127.578125 154.90625 128.542969 154.449219 129.640625 C 153.988281 130.742188 153.753906 131.945312 153.753906 133.25 C 153.753906 134.554688 153.988281 135.757812 154.449219 136.859375 C 154.90625 137.964844 155.554688 138.925781 156.386719 139.742188 C 157.21875 140.5625 158.191406 141.199219 159.304688 141.648438 C 160.417969 142.097656 161.640625 142.320312 162.964844 142.320312 M 162.964844 145.328125 C 161.164062 145.328125 159.496094 145.023438 157.953125 144.414062 C 156.414062 143.804688 155.078125 142.957031 153.957031 141.867188 C 152.835938 140.773438 151.953125 139.5 151.320312 138.035156 C 150.691406 136.570312 150.378906 134.976562 150.378906 133.246094 C 150.378906 131.515625 150.695312 129.917969 151.320312 128.453125 C 151.949219 126.992188 152.828125 125.714844 153.953125 124.625 C 155.078125 123.53125 156.40625 122.683594 157.933594 122.078125 C 159.464844 121.46875 161.140625 121.167969 162.964844 121.167969 C 164.761719 121.167969 166.421875 121.464844 167.9375 122.0625 C 169.457031 122.660156 170.78125 123.503906 171.921875 124.589844 C 173.058594 125.679688 173.933594 126.960938 174.550781 128.421875 C 175.171875 129.882812 175.480469 131.488281 175.480469 133.246094 C 175.480469 135.003906 175.171875 136.609375 174.550781 138.070312 C 173.933594 139.53125 173.054688 140.808594 171.921875 141.898438 C 170.785156 142.992188 169.457031 143.835938 167.9375 144.429688 C 166.421875 145.023438 164.761719 145.324219 162.964844 145.324219 " clip-rule="nonzero"/></clipPath><clipPath id="fb4dd970f6"><path d="M 178.292969 121.339844 L 202.539062 121.339844 L 202.539062 145.152344 L 178.292969 145.152344 Z M 178.292969 121.339844 " clip-rule="nonzero"/></clipPath><clipPath id="2748cb5bce"><path d="M 188.738281 145.050781 L 178.347656 121.4375 L 181.992188 121.4375 L 191.539062 143.230469 L 189.445312 143.230469 L 199.0625 121.4375 L 202.433594 121.4375 L 192.078125 145.050781 Z M 188.738281 145.050781 " clip-rule="nonzero"/></clipPath><clipPath id="277a6a3782"><path d="M 205.527344 158.925781 L 224.484375 158.925781 L 224.484375 159.332031 L 205.527344 159.332031 Z M 205.527344 158.925781 " clip-rule="nonzero"/></clipPath><clipPath id="698fb93e2e"><path d="M 207.464844 121.4375 L 224.128906 121.4375 L 224.128906 124.375 L 207.464844 124.375 Z M 207.464844 124.375 L 210.835938 124.375 L 210.835938 131.625 L 207.464844 131.625 Z M 207.464844 131.625 L 222.679688 131.625 L 222.679688 134.492188 L 207.464844 134.492188 Z M 207.464844 134.492188 L 210.835938 134.492188 L 210.835938 142.121094 L 207.464844 142.121094 Z M 207.464844 142.121094 L 224.484375 142.121094 L 224.484375 145.054688 L 207.464844 145.054688 Z M 207.464844 142.121094 " clip-rule="nonzero"/></clipPath></defs><g clip-path="url(#0dc7df4351)"><g clip-path="url(#da1bda8ed9)"><path fill="#3a3e3b" d="M 0.277344 121.4375 L 19.746094 121.4375 L 19.746094 145.085938 L 0.277344 145.085938 Z M 0.277344 121.4375 " fill-opacity="1" fill-rule="nonzero"/></g></g><g clip-path="url(#fd98e59c17)"><path fill="#6d98ba" d="M 0.277344 158.925781 L 19.351562 158.925781 L 19.351562 159.332031 L 0.277344 159.332031 Z M 0.277344 158.925781 " fill-opacity="1" fill-rule="nonzero"/></g><g clip-path="url(#28d9e469fc)"><path fill="#3a3e3b" d="M 26.828125 121.4375 L 30.203125 121.4375 L 30.203125 145.050781 L 26.828125 145.050781 Z M 26.828125 121.4375 " fill-opacity="1" fill-rule="nonzero"/></g><g clip-path="url(#4858da293a)"><g clip-path="url(#a680c578c6)"><path fill="#3a3e3b" d="M 29.210938 152.71875 L 39.628906 152.71875 L 39.628906 165.742188 L 29.210938 165.742188 Z M 29.210938 152.71875 " fill-opacity="1" fill-rule="nonzero"/></g></g><g clip-path="url(#f012344cc3)"><g clip-path="url(#5106a3a9cb)"><path fill="#3a3e3b" d="M 37.152344 121.167969 L 55.335938 121.167969 L 55.335938 145.320312 L 37.152344 145.320312 Z M 37.152344 121.167969 " fill-opacity="1" fill-rule="nonzero"/></g></g><g clip-path="url(#bea5683bfd)"><g clip-path="url(#ad40a015e2)"><path fill="#3a3e3b" d="M 49.335938 152.71875 L 62.726562 152.71875 L 62.726562 165.753906 L 49.335938 165.753906 Z M 49.335938 152.71875 " fill-opacity="1" fill-rule="nonzero"/></g></g><g clip-path="url(#d8b9c37976)"><path fill="#3a3e3b" d="M 62.289062 121.4375 L 79.425781 121.4375 L 79.425781 145.070312 L 62.289062 145.070312 Z M 62.289062 121.4375 " fill-opacity="1" fill-rule="nonzero"/></g><g clip-path="url(#4d9b182f18)"><g clip-path="url(#195e7c1da7)"><path fill="#3a3e3b" d="M 74.34375 152.71875 L 84.761719 152.71875 L 84.761719 165.742188 L 74.34375 165.742188 Z M 74.34375 152.71875 " fill-opacity="1" fill-rule="nonzero"/></g></g><g clip-path="url(#3481a88b75)"><path fill="#3a3e3b" d="M 95.195312 152.71875 L 105.886719 152.71875 L 105.886719 165.746094 L 95.195312 165.746094 Z M 95.195312 152.71875 " fill-opacity="1" fill-rule="nonzero"/></g><g clip-path="url(#d5d9f398a7)"><g clip-path="url(#1b24995ecc)"><path fill="#3a3e3b" d="M 94.441406 121.4375 L 119.164062 121.4375 L 119.164062 145.054688 L 94.441406 145.054688 Z M 94.441406 121.4375 " fill-opacity="1" fill-rule="nonzero"/></g></g><g clip-path="url(#39379c4ab2)"><g clip-path="url(#89cf626de8)"><path fill="#3a3e3b" d="M 117.441406 152.71875 L 128.578125 152.71875 L 128.578125 165.769531 L 117.441406 165.769531 Z M 117.441406 152.71875 " fill-opacity="1" fill-rule="nonzero"/></g></g><g clip-path="url(#9501dca31c)"><g clip-path="url(#61cd324423)"><path fill="#3a3e3b" d="M 124.738281 121.4375 L 145.046875 121.4375 L 145.046875 145.078125 L 124.738281 145.078125 Z M 124.738281 121.4375 " fill-opacity="1" fill-rule="nonzero"/></g></g><g clip-path="url(#fa84a3dfd0)"><path fill="#3a3e3b" d="M 142.09375 152.71875 L 151.410156 152.71875 L 151.410156 165.746094 L 142.09375 165.746094 Z M 142.09375 152.71875 " fill-opacity="1" fill-rule="nonzero"/></g><g clip-path="url(#b4f70c827f)"><g clip-path="url(#6d04776a7f)"><path fill="#6d98ba" d="M 60.097656 0 L 167.753906 0 L 167.753906 107.65625 L 60.097656 107.65625 Z M 60.097656 0 " fill-opacity="1" fill-rule="nonzero"/></g></g><g clip-path="url(#46902ef52e)"><g clip-path="url(#d7cd985ff6)"><path fill="#6d98ba" d="M 60.097656 0 L 167.753906 0 L 167.753906 107.65625 L 60.097656 107.65625 Z M 60.097656 0 " fill-opacity="1" fill-rule="nonzero"/></g></g><g clip-path="url(#d7cc7bfa89)"><path fill="#6d98ba" d="M 60.097656 0 L 167.753906 0 L 167.753906 107.65625 L 60.097656 107.65625 Z M 60.097656 0 " fill-opacity="1" fill-rule="nonzero"/></g><g clip-path="url(#2d9e8a0b05)"><path fill="#6d98ba" d="M 60.097656 0 L 167.753906 0 L 167.753906 107.65625 L 60.097656 107.65625 Z M 60.097656 0 " fill-opacity="1" fill-rule="nonzero"/></g><g clip-path="url(#8587ec9451)"><g clip-path="url(#d03d1ae231)"><path fill="#6d98ba" d="M 60.097656 0 L 167.753906 0 L 167.753906 107.65625 L 60.097656 107.65625 Z M 60.097656 0 " fill-opacity="1" fill-rule="nonzero"/></g></g><g clip-path="url(#8a4f0d4d0d)"><g clip-path="url(#94f7ee959c)"><path fill="#3a3e3b" d="M 163.992188 152.71875 L 174.410156 152.71875 L 174.410156 165.742188 L 163.992188 165.742188 Z M 163.992188 152.71875 " fill-opacity="1" fill-rule="nonzero"/></g></g><g clip-path="url(#d42c338b75)"><g clip-path="url(#d8ec1977fe)"><path fill="#3a3e3b" d="M 185.816406 152.5625 L 195.671875 152.5625 L 195.671875 165.921875 L 185.816406 165.921875 Z M 185.816406 152.5625 " fill-opacity="1" fill-rule="nonzero"/></g></g><g clip-path="url(#a16626d263)"><g clip-path="url(#a0bd29b2dd)"><path fill="#3a3e3b" d="M 148.476562 119.265625 L 204.289062 119.265625 L 204.289062 147.226562 L 148.476562 147.226562 Z M 148.476562 119.265625 " fill-opacity="1" fill-rule="nonzero"/></g></g><g clip-path="url(#fb4dd970f6)"><g clip-path="url(#2748cb5bce)"><path fill="#3a3e3b" d="M 148.476562 119.265625 L 204.289062 119.265625 L 204.289062 147.226562 L 148.476562 147.226562 Z M 148.476562 119.265625 " fill-opacity="1" fill-rule="nonzero"/></g></g><g clip-path="url(#277a6a3782)"><path fill="#6d98ba" d="M 205.527344 158.925781 L 224.601562 158.925781 L 224.601562 159.332031 L 205.527344 159.332031 Z M 205.527344 158.925781 " fill-opacity="1" fill-rule="nonzero"/></g><g clip-path="url(#698fb93e2e)"><path fill="#3a3e3b" d="M 207.464844 121.4375 L 224.601562 121.4375 L 224.601562 145.070312 L 207.464844 145.070312 Z M 207.464844 121.4375 " fill-opacity="1" fill-rule="nonzero"/></g></svg>