<svg xmlns="http://www.w3.org/2000/svg" xmlns:xlink="http://www.w3.org/1999/xlink" width="250" zoomAndPan="magnify" viewBox="0 0 187.5 187.499992" height="250" preserveAspectRatio="xMidYMid meet" version="1.0"><defs><clipPath id="ad490ae8a9"><path d="M 2.742188 77.324219 L 184.257812 77.324219 L 184.257812 131.613281 L 2.742188 131.613281 Z M 2.742188 77.324219 " clip-rule="nonzero"/></clipPath><clipPath id="58c69da2c3"><path d="M 184.257812 103.464844 L 184.257812 107.238281 L 174.503906 107.238281 L 153.15625 85.792969 L 141.207031 96.3125 L 138.371094 98.8125 L 127.222656 108.625 L 124.394531 111.117188 L 101.191406 131.542969 L 76.667969 112.390625 L 73.683594 110.058594 L 61.765625 100.742188 L 58.78125 98.410156 L 38.585938 82.640625 L 9.703125 106.710938 L 2.746094 106.710938 L 2.746094 102.9375 L 8.34375 102.9375 L 38.515625 77.800781 L 61.359375 95.648438 L 64.347656 97.980469 L 76.277344 107.3125 L 79.265625 109.644531 L 101.039062 126.65625 L 121.945312 108.253906 L 124.773438 105.765625 L 135.882812 95.984375 L 138.722656 93.488281 L 153.320312 80.632812 L 176.0625 103.476562 Z M 184.257812 103.464844 " clip-rule="nonzero"/></clipPath><clipPath id="e1ef06c909"><path d="M 2.742188 79 L 184.257812 79 L 184.257812 138.742188 L 2.742188 138.742188 Z M 2.742188 79 " clip-rule="nonzero"/></clipPath><clipPath id="61625f63dc"><path d="M 184.257812 134.578125 L 184.257812 138.347656 L 147.523438 138.347656 L 124.402344 111.113281 L 121.957031 108.234375 L 102.351562 85.148438 L 79.269531 109.636719 L 76.675781 112.390625 L 52.199219 138.351562 L 2.746094 138.351562 L 2.746094 134.582031 L 50.570312 134.582031 L 73.6875 110.0625 L 76.285156 107.308594 L 102.496094 79.507812 L 124.785156 105.753906 L 127.226562 108.628906 L 149.277344 134.585938 Z M 184.257812 134.578125 " clip-rule="nonzero"/></clipPath><clipPath id="8e0066aeb4"><path d="M 2.746094 2.746094 L 184.257812 2.746094 L 184.257812 6.515625 L 2.746094 6.515625 Z M 2.746094 6.515625 L 6.515625 6.515625 L 6.515625 106.710938 L 2.746094 106.710938 Z M 180.484375 6.515625 L 184.257812 6.515625 L 184.257812 107.238281 L 180.484375 107.238281 Z M 180.484375 6.515625 " clip-rule="nonzero"/></clipPath><clipPath id="b647863c1d"><path d="M 180.484375 134.578125 L 184.257812 134.578125 L 184.257812 180.480469 L 180.484375 180.480469 Z M 2.746094 134.578125 L 6.515625 134.578125 L 6.515625 180.480469 L 2.746094 180.480469 Z M 2.746094 180.480469 L 184.257812 180.480469 L 184.257812 184.257812 L 2.746094 184.257812 Z M 2.746094 180.480469 " clip-rule="nonzero"/></clipPath><clipPath id="6aca6b9ade"><path d="M 2.742188 51.546875 L 184.257812 51.546875 L 184.257812 120.644531 L 2.742188 120.644531 Z M 2.742188 51.546875 " clip-rule="nonzero"/></clipPath><clipPath id="20c9e507d9"><path d="M 180.484375 116.734375 L 159.035156 116.734375 L 141.214844 96.3125 L 138.730469 93.46875 L 102.300781 51.742188 L 61.367188 95.644531 L 58.785156 98.410156 L 41.699219 116.734375 L 2.746094 116.734375 L 2.746094 120.503906 L 43.339844 120.503906 L 61.765625 100.742188 L 64.347656 97.976562 L 102.199219 57.375 L 135.894531 95.972656 L 138.375 98.816406 L 157.316406 120.507812 L 184.257812 120.507812 L 184.257812 116.738281 Z M 180.484375 116.734375 " clip-rule="nonzero"/></clipPath></defs><g clip-path="url(#ad490ae8a9)"><g clip-path="url(#58c69da2c3)"><path fill="#6d98ba" d="M 0 0 L 187 0 L 187 187 L 0 187 Z M 0 0 " fill-opacity="1" fill-rule="nonzero"/></g></g><g clip-path="url(#e1ef06c909)"><g clip-path="url(#61625f63dc)"><path fill="#6d98ba" d="M 0 0 L 187 0 L 187 187 L 0 187 Z M 0 0 " fill-opacity="1" fill-rule="nonzero"/></g></g><g clip-path="url(#8e0066aeb4)"><path fill="#6d98ba" d="M 0 0 L 187 0 L 187 187 L 0 187 Z M 0 0 " fill-opacity="1" fill-rule="nonzero"/></g><g clip-path="url(#b647863c1d)"><path fill="#6d98ba" d="M 0 0 L 187 0 L 187 187 L 0 187 Z M 0 0 " fill-opacity="1" fill-rule="nonzero"/></g><g clip-path="url(#6aca6b9ade)"><g clip-path="url(#20c9e507d9)"><path fill="#6d98ba" d="M 0 0 L 187 0 L 187 187 L 0 187 Z M 0 0 " fill-opacity="1" fill-rule="nonzero"/></g></g></svg>