<svg xmlns="http://www.w3.org/2000/svg" xmlns:xlink="http://www.w3.org/1999/xlink" width="500" zoomAndPan="magnify" viewBox="0 0 375 374.999991" height="500" preserveAspectRatio="xMidYMid meet" version="1.0"><defs><clipPath id="3508cca2eb"><path d="M 78.25 78.25 L 296.75 78.25 L 296.75 297 L 78.25 297 Z M 78.25 78.25 " clip-rule="nonzero"/></clipPath><clipPath id="cf46a15de7"><path d="M 296.742188 187.5 C 296.742188 247.835938 247.832031 296.75 187.496094 296.75 C 127.160156 296.75 78.253906 247.835938 78.253906 187.5 C 78.253906 127.167969 127.167969 78.253906 187.503906 78.253906 C 247.835938 78.253906 296.742188 127.167969 296.742188 187.5 " clip-rule="nonzero"/></clipPath><clipPath id="cc63af707a"><path d="M 135 178.394531 L 240 178.394531 L 240 209.609375 L 135 209.609375 Z M 135 178.394531 " clip-rule="nonzero"/></clipPath><clipPath id="f30069523b"><path d="M 239.527344 193.210938 L 239.527344 195.371094 L 233.933594 195.371094 L 221.699219 183.074219 L 214.851562 189.109375 L 213.222656 190.542969 L 206.832031 196.164062 L 205.210938 197.589844 L 191.914062 209.300781 L 177.855469 198.320312 L 176.144531 196.984375 L 169.3125 191.640625 L 167.597656 190.308594 L 156.027344 181.265625 L 139.46875 195.066406 L 135.472656 195.066406 L 135.472656 192.902344 L 138.679688 192.902344 L 155.972656 178.492188 L 169.070312 188.726562 L 170.78125 190.058594 L 177.628906 195.410156 L 179.339844 196.746094 L 191.824219 206.496094 L 203.804688 195.945312 L 205.425781 194.519531 L 211.792969 188.90625 L 213.417969 187.476562 L 221.789062 180.109375 L 234.828125 193.203125 Z M 239.527344 193.210938 " clip-rule="nonzero"/></clipPath><clipPath id="7052cd552d"><path d="M 135 179.046875 L 240 179.046875 L 240 213.511719 L 135 213.511719 Z M 135 179.046875 " clip-rule="nonzero"/></clipPath><clipPath id="2fbbdb90e1"><path d="M 239.527344 211.050781 L 239.527344 213.210938 L 218.464844 213.210938 L 205.207031 197.597656 L 203.804688 195.949219 L 192.566406 182.710938 L 179.332031 196.75 L 177.84375 198.324219 L 163.8125 213.210938 L 135.472656 213.210938 L 135.472656 211.050781 L 162.886719 211.050781 L 176.136719 196.992188 L 177.628906 195.417969 L 192.65625 179.476562 L 205.433594 194.523438 L 206.832031 196.171875 L 219.472656 211.050781 Z M 239.527344 211.050781 " clip-rule="nonzero"/></clipPath><clipPath id="596f6b54ae"><path d="M 135.472656 135.472656 L 239.527344 135.472656 L 239.527344 137.640625 L 135.472656 137.640625 Z M 135.472656 137.640625 L 137.632812 137.640625 L 137.632812 195.066406 L 135.472656 195.066406 Z M 237.363281 137.640625 L 239.527344 137.640625 L 239.527344 195.378906 L 237.363281 195.378906 Z M 237.363281 137.640625 " clip-rule="nonzero"/></clipPath><clipPath id="67ed50f4f4"><path d="M 237.363281 211.050781 L 239.527344 211.050781 L 239.527344 237.363281 L 237.363281 237.363281 Z M 135.472656 211.050781 L 137.640625 211.050781 L 137.640625 237.363281 L 135.472656 237.363281 Z M 135.472656 237.363281 L 239.527344 237.363281 L 239.527344 239.527344 L 135.472656 239.527344 Z M 135.472656 237.363281 " clip-rule="nonzero"/></clipPath><clipPath id="3545411971"><path d="M 135 163.4375 L 240 163.4375 L 240 203 L 135 203 Z M 135 163.4375 " clip-rule="nonzero"/></clipPath><clipPath id="13ce8617c8"><path d="M 237.363281 200.820312 L 225.0625 200.820312 L 214.84375 189.117188 L 213.425781 187.480469 L 192.539062 163.5625 L 169.078125 188.726562 L 167.597656 190.3125 L 157.804688 200.820312 L 135.472656 200.820312 L 135.472656 202.980469 L 158.742188 202.980469 L 169.304688 191.648438 L 170.78125 190.058594 L 192.480469 166.785156 L 211.800781 188.90625 L 213.222656 190.542969 L 224.082031 202.980469 L 239.527344 202.980469 L 239.527344 200.820312 Z M 237.363281 200.820312 " clip-rule="nonzero"/></clipPath></defs><g clip-path="url(#3508cca2eb)"><g clip-path="url(#cf46a15de7)"><path fill="#6d98ba" d="M 75 75 L 300 75 L 300 300 L 75 300 Z M 75 75 " fill-opacity="1" fill-rule="nonzero"/></g></g><g clip-path="url(#cc63af707a)"><g clip-path="url(#f30069523b)"><path fill="#ffffff" d="M 75 75 L 300 75 L 300 300 L 75 300 Z M 75 75 " fill-opacity="1" fill-rule="nonzero"/></g></g><g clip-path="url(#7052cd552d)"><g clip-path="url(#2fbbdb90e1)"><path fill="#ffffff" d="M 75 75 L 300 75 L 300 300 L 75 300 Z M 75 75 " fill-opacity="1" fill-rule="nonzero"/></g></g><g clip-path="url(#596f6b54ae)"><path fill="#ffffff" d="M 75 75 L 300 75 L 300 300 L 75 300 Z M 75 75 " fill-opacity="1" fill-rule="nonzero"/></g><g clip-path="url(#67ed50f4f4)"><path fill="#ffffff" d="M 75 75 L 300 75 L 300 300 L 75 300 Z M 75 75 " fill-opacity="1" fill-rule="nonzero"/></g><g clip-path="url(#3545411971)"><g clip-path="url(#13ce8617c8)"><path fill="#ffffff" d="M 75 75 L 300 75 L 300 300 L 75 300 Z M 75 75 " fill-opacity="1" fill-rule="nonzero"/></g></g></svg>